<mxfile host="Electron" modified="2023-12-20T21:25:10.376Z" agent="Mozilla/5.0 (X11; Linux x86_64) AppleWebKit/537.36 (KHTML, like Gecko) draw.io/22.1.11 Chrome/114.0.5735.289 Electron/25.9.8 Safari/537.36" etag="OdOQO2NRrTV95QEGtn66" version="22.1.11" type="device" pages="2">
  <diagram name="overview" id="FzUdrfkBhp2PZ2tnmgH8">
    <mxGraphModel dx="3853" dy="1805" grid="0" gridSize="10" guides="1" tooltips="1" connect="1" arrows="1" fold="1" page="0" pageScale="1" pageWidth="850" pageHeight="1100" math="0" shadow="0">
      <root>
        <mxCell id="0" />
        <mxCell id="1" parent="0" />
        <mxCell id="4MzjMd-Fdl49Qua-2kQm-7" value="" style="group" parent="1" vertex="1" connectable="0">
          <mxGeometry x="-456" y="-328" width="1310" height="1068" as="geometry" />
        </mxCell>
        <mxCell id="lL54w9n_S-BsPsUAPDHO-1" value="" style="rounded=0;whiteSpace=wrap;html=1;fillColor=#575757;fontColor=#ffffff;strokeColor=#314354;" parent="4MzjMd-Fdl49Qua-2kQm-7" vertex="1">
          <mxGeometry width="1310" height="1068" as="geometry" />
        </mxCell>
        <mxCell id="lL54w9n_S-BsPsUAPDHO-3" value="&lt;font style=&quot;font-size: 18px;&quot;&gt;&lt;b&gt;Application&lt;/b&gt;&lt;/font&gt;" style="text;html=1;strokeColor=none;fillColor=none;align=center;verticalAlign=middle;whiteSpace=wrap;rounded=0;" parent="4MzjMd-Fdl49Qua-2kQm-7" vertex="1">
          <mxGeometry x="33" y="18" width="139" height="31" as="geometry" />
        </mxCell>
        <mxCell id="4MzjMd-Fdl49Qua-2kQm-10" value="" style="group" parent="4MzjMd-Fdl49Qua-2kQm-7" vertex="1" connectable="0">
          <mxGeometry x="75" y="68.5" width="1160" height="931" as="geometry" />
        </mxCell>
        <mxCell id="lL54w9n_S-BsPsUAPDHO-2" value="" style="rounded=0;whiteSpace=wrap;html=1;fillColor=#1ba1e2;fontColor=#ffffff;strokeColor=#006EAF;" parent="4MzjMd-Fdl49Qua-2kQm-10" vertex="1">
          <mxGeometry width="1160" height="931" as="geometry" />
        </mxCell>
        <mxCell id="lL54w9n_S-BsPsUAPDHO-4" value="&lt;font style=&quot;font-size: 18px;&quot;&gt;&lt;b&gt;MainWindow&lt;/b&gt;&lt;/font&gt;" style="text;html=1;strokeColor=none;fillColor=none;align=center;verticalAlign=middle;whiteSpace=wrap;rounded=0;" parent="4MzjMd-Fdl49Qua-2kQm-10" vertex="1">
          <mxGeometry x="33" y="22" width="140" height="33" as="geometry" />
        </mxCell>
        <mxCell id="4MzjMd-Fdl49Qua-2kQm-9" value="" style="group" parent="4MzjMd-Fdl49Qua-2kQm-10" vertex="1" connectable="0">
          <mxGeometry x="79" y="150.5" width="983" height="755" as="geometry" />
        </mxCell>
        <mxCell id="4MzjMd-Fdl49Qua-2kQm-11" value="" style="group" parent="4MzjMd-Fdl49Qua-2kQm-9" vertex="1" connectable="0">
          <mxGeometry width="983" height="755" as="geometry" />
        </mxCell>
        <mxCell id="4MzjMd-Fdl49Qua-2kQm-2" value="" style="rounded=0;whiteSpace=wrap;html=1;fillColor=#7B8EAB;strokeColor=#7B8EAB;" parent="4MzjMd-Fdl49Qua-2kQm-11" vertex="1">
          <mxGeometry width="983" height="755" as="geometry" />
        </mxCell>
        <mxCell id="4MzjMd-Fdl49Qua-2kQm-3" value="&lt;font style=&quot;font-size: 18px;&quot;&gt;&lt;b&gt;CentralWidget&lt;/b&gt;&lt;/font&gt;" style="text;html=1;strokeColor=none;fillColor=none;align=center;verticalAlign=middle;whiteSpace=wrap;rounded=0;" parent="4MzjMd-Fdl49Qua-2kQm-11" vertex="1">
          <mxGeometry x="27.995070422535214" y="69.00345006485084" width="138.4507042253521" height="32.31517509727626" as="geometry" />
        </mxCell>
        <mxCell id="lL54w9n_S-BsPsUAPDHO-7" value="" style="rounded=0;whiteSpace=wrap;html=1;fillColor=#a20025;fontColor=#ffffff;strokeColor=#6F0000;" parent="4MzjMd-Fdl49Qua-2kQm-11" vertex="1">
          <mxGeometry x="79" y="146" width="163" height="497.5" as="geometry" />
        </mxCell>
        <mxCell id="lL54w9n_S-BsPsUAPDHO-8" value="&lt;font style=&quot;font-size: 18px;&quot;&gt;&lt;b&gt;Document Tree&lt;/b&gt;&lt;/font&gt;" style="text;html=1;strokeColor=none;fillColor=none;align=center;verticalAlign=middle;whiteSpace=wrap;rounded=0;" parent="4MzjMd-Fdl49Qua-2kQm-11" vertex="1">
          <mxGeometry x="107" y="353" width="107" height="51" as="geometry" />
        </mxCell>
        <mxCell id="lL54w9n_S-BsPsUAPDHO-17" value="" style="rounded=0;whiteSpace=wrap;html=1;fillColor=#6a00ff;fontColor=#ffffff;strokeColor=#3700CC;" parent="4MzjMd-Fdl49Qua-2kQm-11" vertex="1">
          <mxGeometry x="245" y="145.5" width="10" height="497.5" as="geometry" />
        </mxCell>
        <mxCell id="lL54w9n_S-BsPsUAPDHO-19" value="" style="rounded=0;whiteSpace=wrap;html=1;fillColor=#f0a30a;fontColor=#000000;strokeColor=#BD7000;" parent="4MzjMd-Fdl49Qua-2kQm-11" vertex="1">
          <mxGeometry x="258" y="145.5" width="334" height="332.5" as="geometry" />
        </mxCell>
        <mxCell id="lL54w9n_S-BsPsUAPDHO-20" value="&lt;font style=&quot;font-size: 18px;&quot;&gt;&lt;b&gt;Document Editor&lt;/b&gt;&lt;/font&gt;" style="text;html=1;strokeColor=none;fillColor=none;align=center;verticalAlign=middle;whiteSpace=wrap;rounded=0;" parent="4MzjMd-Fdl49Qua-2kQm-11" vertex="1">
          <mxGeometry x="370.5" y="283" width="109" height="70" as="geometry" />
        </mxCell>
        <mxCell id="lL54w9n_S-BsPsUAPDHO-21" value="" style="rounded=0;whiteSpace=wrap;html=1;fillColor=#6a00ff;fontColor=#ffffff;strokeColor=#3700CC;" parent="4MzjMd-Fdl49Qua-2kQm-11" vertex="1">
          <mxGeometry x="596" y="145.5" width="10" height="497.5" as="geometry" />
        </mxCell>
        <mxCell id="lL54w9n_S-BsPsUAPDHO-22" value="" style="rounded=0;whiteSpace=wrap;html=1;fillColor=#76608a;fontColor=#ffffff;strokeColor=#432D57;" parent="4MzjMd-Fdl49Qua-2kQm-11" vertex="1">
          <mxGeometry x="613" y="145.5" width="288" height="497.5" as="geometry" />
        </mxCell>
        <mxCell id="lL54w9n_S-BsPsUAPDHO-23" value="&lt;font style=&quot;font-size: 18px;&quot;&gt;&lt;b&gt;Document Preview&lt;/b&gt;&lt;/font&gt;" style="text;html=1;strokeColor=none;fillColor=none;align=center;verticalAlign=middle;whiteSpace=wrap;rounded=0;" parent="4MzjMd-Fdl49Qua-2kQm-11" vertex="1">
          <mxGeometry x="696.5" y="325.5" width="121" height="87" as="geometry" />
        </mxCell>
        <mxCell id="lL54w9n_S-BsPsUAPDHO-37" value="" style="rounded=0;whiteSpace=wrap;html=1;fillColor=#60a917;fontColor=#ffffff;strokeColor=#2D7600;" parent="4MzjMd-Fdl49Qua-2kQm-11" vertex="1">
          <mxGeometry x="79" y="656.5" width="825" height="32" as="geometry" />
        </mxCell>
        <mxCell id="lL54w9n_S-BsPsUAPDHO-38" value="&lt;font style=&quot;font-size: 16px;&quot;&gt;&lt;b&gt;StatusBar&lt;/b&gt;&lt;/font&gt;" style="text;html=1;strokeColor=none;fillColor=none;align=center;verticalAlign=middle;whiteSpace=wrap;rounded=0;" parent="4MzjMd-Fdl49Qua-2kQm-11" vertex="1">
          <mxGeometry x="441" y="656.5" width="94" height="30" as="geometry" />
        </mxCell>
        <mxCell id="adOJyctXqlIOS5mgFTRc-1" value="" style="rounded=0;whiteSpace=wrap;html=1;fillColor=#f0a30a;fontColor=#000000;strokeColor=#BD7000;" parent="4MzjMd-Fdl49Qua-2kQm-11" vertex="1">
          <mxGeometry x="258" y="509" width="334" height="134" as="geometry" />
        </mxCell>
        <mxCell id="adOJyctXqlIOS5mgFTRc-2" value="&lt;font style=&quot;font-size: 18px;&quot;&gt;&lt;b&gt;Terminal&lt;/b&gt;&lt;/font&gt;" style="text;html=1;strokeColor=none;fillColor=none;align=center;verticalAlign=middle;whiteSpace=wrap;rounded=0;" parent="4MzjMd-Fdl49Qua-2kQm-11" vertex="1">
          <mxGeometry x="370.5" y="548.5" width="109" height="70" as="geometry" />
        </mxCell>
        <mxCell id="adOJyctXqlIOS5mgFTRc-3" value="" style="rounded=0;whiteSpace=wrap;html=1;fillColor=#6a00ff;fontColor=#ffffff;strokeColor=#3700CC;" parent="4MzjMd-Fdl49Qua-2kQm-11" vertex="1">
          <mxGeometry x="262" y="486" width="326" height="15.5" as="geometry" />
        </mxCell>
        <mxCell id="lL54w9n_S-BsPsUAPDHO-5" value="" style="rounded=0;whiteSpace=wrap;html=1;fillColor=#60a917;fontColor=#ffffff;strokeColor=#2D7600;" parent="4MzjMd-Fdl49Qua-2kQm-10" vertex="1">
          <mxGeometry x="96" y="70.5" width="952" height="27" as="geometry" />
        </mxCell>
        <mxCell id="lL54w9n_S-BsPsUAPDHO-24" value="" style="rounded=0;whiteSpace=wrap;html=1;fillColor=#fa6800;fontColor=#000000;strokeColor=#C73500;" parent="4MzjMd-Fdl49Qua-2kQm-10" vertex="1">
          <mxGeometry x="104" y="75.5" width="112" height="105.5" as="geometry" />
        </mxCell>
        <mxCell id="lL54w9n_S-BsPsUAPDHO-32" value="" style="rounded=0;whiteSpace=wrap;html=1;fillColor=#0050ef;fontColor=#ffffff;strokeColor=#001DBC;" parent="4MzjMd-Fdl49Qua-2kQm-10" vertex="1">
          <mxGeometry x="109" y="106.5" width="102" height="21" as="geometry" />
        </mxCell>
        <mxCell id="lL54w9n_S-BsPsUAPDHO-33" value="&lt;b&gt;Action&lt;/b&gt;" style="text;html=1;strokeColor=none;fillColor=none;align=center;verticalAlign=middle;whiteSpace=wrap;rounded=0;" parent="4MzjMd-Fdl49Qua-2kQm-10" vertex="1">
          <mxGeometry x="130" y="102" width="60" height="30" as="geometry" />
        </mxCell>
        <mxCell id="lL54w9n_S-BsPsUAPDHO-28" value="&lt;b&gt;Menu&lt;/b&gt;" style="text;html=1;strokeColor=none;fillColor=none;align=center;verticalAlign=middle;whiteSpace=wrap;rounded=0;" parent="4MzjMd-Fdl49Qua-2kQm-10" vertex="1">
          <mxGeometry x="129" y="77.5" width="60" height="20" as="geometry" />
        </mxCell>
        <mxCell id="lL54w9n_S-BsPsUAPDHO-6" value="&lt;font style=&quot;font-size: 16px;&quot;&gt;&lt;b&gt;MenuBar&lt;/b&gt;&lt;/font&gt;" style="text;html=1;strokeColor=none;fillColor=none;align=center;verticalAlign=middle;whiteSpace=wrap;rounded=0;" parent="4MzjMd-Fdl49Qua-2kQm-10" vertex="1">
          <mxGeometry x="483" y="70.5" width="94" height="30" as="geometry" />
        </mxCell>
        <mxCell id="lL54w9n_S-BsPsUAPDHO-36" value="&lt;h1&gt;Core&lt;/h1&gt;&lt;div style=&quot;font-size: 16px;&quot;&gt;&lt;font style=&quot;font-size: 16px;&quot;&gt;+ Application::QApplication&lt;/font&gt;&lt;/div&gt;&lt;div style=&quot;font-size: 16px;&quot;&gt;&lt;font style=&quot;font-size: 16px;&quot;&gt;&lt;br&gt;&lt;/font&gt;&lt;/div&gt;&lt;div style=&quot;font-size: 16px;&quot;&gt;&lt;font style=&quot;font-size: 16px;&quot;&gt;+ MainWindow::QMainWindow&lt;/font&gt;&lt;/div&gt;&lt;div style=&quot;font-size: 16px;&quot;&gt;&lt;font style=&quot;font-size: 16px;&quot;&gt;&lt;br&gt;&lt;/font&gt;&lt;/div&gt;&lt;div style=&quot;font-size: 16px;&quot;&gt;&lt;span style=&quot;background-color: initial;&quot;&gt;+ CentralWidget::QWidget&lt;/span&gt;&lt;br&gt;&lt;/div&gt;&lt;div&gt;&lt;br&gt;&lt;/div&gt;" style="text;html=1;strokeColor=#314354;fillColor=#647687;spacing=5;spacingTop=-20;whiteSpace=wrap;overflow=hidden;rounded=0;fontColor=#ffffff;" parent="1" vertex="1">
          <mxGeometry x="-659" y="800" width="423" height="456" as="geometry" />
        </mxCell>
        <mxCell id="4MzjMd-Fdl49Qua-2kQm-12" value="&lt;h1&gt;Widgets&lt;/h1&gt;&lt;div style=&quot;font-size: 16px;&quot;&gt;&lt;font style=&quot;font-size: 16px;&quot;&gt;+ MenuBar::QMenuBar&lt;/font&gt;&lt;/div&gt;&lt;div style=&quot;font-size: 16px;&quot;&gt;&lt;font style=&quot;font-size: 16px;&quot;&gt;&lt;br&gt;&lt;/font&gt;&lt;/div&gt;&lt;div style=&quot;font-size: 16px;&quot;&gt;&lt;font style=&quot;font-size: 16px;&quot;&gt;+ DocumentTree::QTreeWidget&lt;/font&gt;&lt;/div&gt;&lt;div style=&quot;font-size: 16px;&quot;&gt;&lt;font style=&quot;font-size: 16px;&quot;&gt;&lt;br&gt;&lt;/font&gt;&lt;/div&gt;&lt;div style=&quot;font-size: 16px;&quot;&gt;&lt;font style=&quot;font-size: 16px;&quot;&gt;+ DocumentEditor::QPlainTextEdit&lt;/font&gt;&lt;/div&gt;&lt;div style=&quot;font-size: 16px;&quot;&gt;&lt;font style=&quot;font-size: 16px;&quot;&gt;&lt;br&gt;&lt;/font&gt;&lt;/div&gt;&lt;div style=&quot;font-size: 16px;&quot;&gt;&lt;font style=&quot;font-size: 16px;&quot;&gt;+ Terminal::QTabWidget&lt;/font&gt;&lt;/div&gt;&lt;div style=&quot;font-size: 16px;&quot;&gt;&lt;font style=&quot;font-size: 16px;&quot;&gt;&lt;br&gt;&lt;/font&gt;&lt;/div&gt;&lt;div style=&quot;font-size: 16px;&quot;&gt;&lt;font style=&quot;font-size: 16px;&quot;&gt;+ DocumentPreview::QTextBrowser&lt;/font&gt;&lt;/div&gt;&lt;div style=&quot;font-size: 16px;&quot;&gt;&lt;font style=&quot;font-size: 16px;&quot;&gt;&lt;br&gt;&lt;/font&gt;&lt;/div&gt;&lt;div style=&quot;font-size: 16px;&quot;&gt;&lt;font style=&quot;font-size: 16px;&quot;&gt;+ StatusBar::QStatusBar&lt;/font&gt;&lt;/div&gt;&lt;div&gt;&lt;br&gt;&lt;/div&gt;" style="text;html=1;strokeColor=#314354;fillColor=#647687;spacing=5;spacingTop=-20;whiteSpace=wrap;overflow=hidden;rounded=0;fontColor=#ffffff;" parent="1" vertex="1">
          <mxGeometry x="-197" y="801" width="423" height="456" as="geometry" />
        </mxCell>
        <mxCell id="4MzjMd-Fdl49Qua-2kQm-13" value="&lt;h1&gt;Menus&lt;/h1&gt;&lt;div style=&quot;font-size: 16px;&quot;&gt;&lt;font style=&quot;font-size: 16px;&quot;&gt;+ Menu::QMenu&lt;/font&gt;&lt;/div&gt;" style="text;html=1;strokeColor=#314354;fillColor=#647687;spacing=5;spacingTop=-20;whiteSpace=wrap;overflow=hidden;rounded=0;fontColor=#ffffff;" parent="1" vertex="1">
          <mxGeometry x="263" y="801" width="423" height="456" as="geometry" />
        </mxCell>
        <mxCell id="4MzjMd-Fdl49Qua-2kQm-14" value="&lt;h1&gt;Actions&lt;/h1&gt;&lt;div&gt;&lt;div style=&quot;font-size: 16px;&quot;&gt;+ Action::QAction&lt;/div&gt;&lt;div&gt;&lt;br&gt;&lt;/div&gt;&lt;/div&gt;" style="text;html=1;strokeColor=#314354;fillColor=#647687;spacing=5;spacingTop=-20;whiteSpace=wrap;overflow=hidden;rounded=0;fontColor=#ffffff;" parent="1" vertex="1">
          <mxGeometry x="711" y="801" width="423" height="456" as="geometry" />
        </mxCell>
      </root>
    </mxGraphModel>
  </diagram>
  <diagram id="TJgQccEb8gtOzzWVurKG" name="RefTag">
    <mxGraphModel dx="2955" dy="992" grid="0" gridSize="10" guides="1" tooltips="1" connect="1" arrows="1" fold="1" page="0" pageScale="1" pageWidth="850" pageHeight="1100" math="0" shadow="0">
      <root>
        <mxCell id="0" />
        <mxCell id="1" parent="0" />
        <mxCell id="J-gtvcApfh8FxLfmaqBg-1" value="&lt;font style=&quot;font-size: 24px;&quot;&gt;@import &amp;lt;name&amp;gt;&lt;/font&gt;" style="text;html=1;fillColor=#0050ef;align=center;verticalAlign=middle;whiteSpace=wrap;rounded=0;strokeColor=#001DBC;fontColor=#ffffff;" parent="1" vertex="1">
          <mxGeometry x="-204" y="277" width="399" height="66" as="geometry" />
        </mxCell>
        <mxCell id="J-gtvcApfh8FxLfmaqBg-2" value="&lt;h1&gt;&lt;span style=&quot;background-color: initial;&quot;&gt;Notes&lt;/span&gt;&lt;/h1&gt;&lt;div&gt;&lt;span style=&quot;background-color: initial;&quot;&gt;+ @create is used to make a reference tag.&lt;/span&gt;&lt;/div&gt;&lt;div&gt;&lt;span style=&quot;background-color: initial;&quot;&gt;&lt;br&gt;&lt;/span&gt;&lt;/div&gt;&lt;div&gt;&lt;span style=&quot;background-color: initial;&quot;&gt;+ @create &amp;lt;...&amp;gt; @as &amp;lt;...&amp;gt; can be used to make a comma seperated list of alias names.&lt;/span&gt;&lt;/div&gt;&lt;div&gt;&lt;span style=&quot;background-color: initial;&quot;&gt;&lt;br&gt;&lt;/span&gt;&lt;/div&gt;&lt;div&gt;&lt;span style=&quot;background-color: initial;&quot;&gt;+ once created that document becomes the entire reference.&lt;/span&gt;&lt;/div&gt;&lt;div&gt;&lt;span style=&quot;background-color: initial;&quot;&gt;&lt;br&gt;&lt;/span&gt;&lt;/div&gt;&lt;div&gt;&lt;span style=&quot;background-color: initial;&quot;&gt;-------------------------------------------------&lt;/span&gt;&lt;/div&gt;&lt;div&gt;&lt;span style=&quot;background-color: initial;&quot;&gt;&lt;br&gt;&lt;/span&gt;&lt;/div&gt;&lt;div&gt;+ @import&amp;lt;...&amp;gt; is used when adding a reference to a document.&lt;/div&gt;&lt;div&gt;&lt;br&gt;&lt;/div&gt;&lt;div&gt;+ @from &amp;lt;...&amp;gt; @import &amp;lt;...&amp;gt; is used to import a alias from a master reference to be used in that document.&lt;/div&gt;&lt;div&gt;&lt;br&gt;&lt;/div&gt;&lt;div&gt;+ once added to a document, that imported tag will allow for syntax highlighting and hover over information.&lt;/div&gt;" style="text;html=1;strokeColor=#314354;fillColor=#647687;spacing=5;spacingTop=-20;whiteSpace=wrap;overflow=hidden;rounded=0;fontColor=#ffffff;" parent="1" vertex="1">
          <mxGeometry x="-521" y="53" width="235" height="395" as="geometry" />
        </mxCell>
        <mxCell id="J-gtvcApfh8FxLfmaqBg-3" value="&lt;span style=&quot;font-size: 24px;&quot;&gt;@create &amp;lt;name&amp;gt; @as &amp;lt;aliases&amp;gt;&lt;/span&gt;" style="text;html=1;fillColor=#008a00;align=center;verticalAlign=middle;whiteSpace=wrap;rounded=0;strokeColor=#005700;fontColor=#ffffff;" parent="1" vertex="1">
          <mxGeometry x="-204" y="132" width="400" height="66" as="geometry" />
        </mxCell>
        <mxCell id="J-gtvcApfh8FxLfmaqBg-12" value="RefTag" style="swimlane;fontStyle=1;align=center;verticalAlign=top;childLayout=stackLayout;horizontal=1;startSize=26;horizontalStack=0;resizeParent=1;resizeParentMax=0;resizeLast=0;collapsible=1;marginBottom=0;whiteSpace=wrap;html=1;" parent="1" vertex="1">
          <mxGeometry x="276" y="53" width="241" height="242" as="geometry" />
        </mxCell>
        <mxCell id="J-gtvcApfh8FxLfmaqBg-13" value="- path: str" style="text;strokeColor=none;fillColor=none;align=left;verticalAlign=top;spacingLeft=4;spacingRight=4;overflow=hidden;rotatable=0;points=[[0,0.5],[1,0.5]];portConstraint=eastwest;whiteSpace=wrap;html=1;" parent="J-gtvcApfh8FxLfmaqBg-12" vertex="1">
          <mxGeometry y="26" width="241" height="26" as="geometry" />
        </mxCell>
        <mxCell id="J-gtvcApfh8FxLfmaqBg-17" value="- name: str" style="text;strokeColor=none;fillColor=none;align=left;verticalAlign=top;spacingLeft=4;spacingRight=4;overflow=hidden;rotatable=0;points=[[0,0.5],[1,0.5]];portConstraint=eastwest;whiteSpace=wrap;html=1;" parent="J-gtvcApfh8FxLfmaqBg-12" vertex="1">
          <mxGeometry y="52" width="241" height="26" as="geometry" />
        </mxCell>
        <mxCell id="J-gtvcApfh8FxLfmaqBg-34" value="- alias_dict: dict[str, AliasTag]" style="text;strokeColor=none;fillColor=none;align=left;verticalAlign=top;spacingLeft=4;spacingRight=4;overflow=hidden;rotatable=0;points=[[0,0.5],[1,0.5]];portConstraint=eastwest;whiteSpace=wrap;html=1;" parent="J-gtvcApfh8FxLfmaqBg-12" vertex="1">
          <mxGeometry y="78" width="241" height="26" as="geometry" />
        </mxCell>
        <mxCell id="J-gtvcApfh8FxLfmaqBg-31" value="- docRef_set: set[str]" style="text;strokeColor=none;fillColor=none;align=left;verticalAlign=top;spacingLeft=4;spacingRight=4;overflow=hidden;rotatable=0;points=[[0,0.5],[1,0.5]];portConstraint=eastwest;whiteSpace=wrap;html=1;" parent="J-gtvcApfh8FxLfmaqBg-12" vertex="1">
          <mxGeometry y="104" width="241" height="26" as="geometry" />
        </mxCell>
        <mxCell id="J-gtvcApfh8FxLfmaqBg-14" value="" style="line;strokeWidth=1;fillColor=none;align=left;verticalAlign=middle;spacingTop=-1;spacingLeft=3;spacingRight=3;rotatable=0;labelPosition=right;points=[];portConstraint=eastwest;strokeColor=inherit;" parent="J-gtvcApfh8FxLfmaqBg-12" vertex="1">
          <mxGeometry y="130" width="241" height="8" as="geometry" />
        </mxCell>
        <mxCell id="J-gtvcApfh8FxLfmaqBg-15" value="+ getter/setters" style="text;strokeColor=none;fillColor=none;align=left;verticalAlign=top;spacingLeft=4;spacingRight=4;overflow=hidden;rotatable=0;points=[[0,0.5],[1,0.5]];portConstraint=eastwest;whiteSpace=wrap;html=1;" parent="J-gtvcApfh8FxLfmaqBg-12" vertex="1">
          <mxGeometry y="138" width="241" height="26" as="geometry" />
        </mxCell>
        <mxCell id="J-gtvcApfh8FxLfmaqBg-25" value="+ overload &amp;lt;, ==" style="text;strokeColor=none;fillColor=none;align=left;verticalAlign=top;spacingLeft=4;spacingRight=4;overflow=hidden;rotatable=0;points=[[0,0.5],[1,0.5]];portConstraint=eastwest;whiteSpace=wrap;html=1;" parent="J-gtvcApfh8FxLfmaqBg-12" vertex="1">
          <mxGeometry y="164" width="241" height="26" as="geometry" />
        </mxCell>
        <mxCell id="TzBk11rLfjOoUa_SHrHC-1" value="+ addAlias(str): bool" style="text;strokeColor=none;fillColor=none;align=left;verticalAlign=top;spacingLeft=4;spacingRight=4;overflow=hidden;rotatable=0;points=[[0,0.5],[1,0.5]];portConstraint=eastwest;whiteSpace=wrap;html=1;" parent="J-gtvcApfh8FxLfmaqBg-12" vertex="1">
          <mxGeometry y="190" width="241" height="26" as="geometry" />
        </mxCell>
        <mxCell id="TzBk11rLfjOoUa_SHrHC-2" value="+ removeAlias(str): bool" style="text;strokeColor=none;fillColor=none;align=left;verticalAlign=top;spacingLeft=4;spacingRight=4;overflow=hidden;rotatable=0;points=[[0,0.5],[1,0.5]];portConstraint=eastwest;whiteSpace=wrap;html=1;" parent="J-gtvcApfh8FxLfmaqBg-12" vertex="1">
          <mxGeometry y="216" width="241" height="26" as="geometry" />
        </mxCell>
        <mxCell id="J-gtvcApfh8FxLfmaqBg-19" value="RefTagManager" style="swimlane;fontStyle=1;align=center;verticalAlign=top;childLayout=stackLayout;horizontal=1;startSize=26;horizontalStack=0;resizeParent=1;resizeParentMax=0;resizeLast=0;collapsible=1;marginBottom=0;whiteSpace=wrap;html=1;" parent="1" vertex="1">
          <mxGeometry x="276" y="364" width="244" height="190" as="geometry" />
        </mxCell>
        <mxCell id="J-gtvcApfh8FxLfmaqBg-20" value="- tag_dict: dict[str, RefTag]" style="text;strokeColor=none;fillColor=none;align=left;verticalAlign=top;spacingLeft=4;spacingRight=4;overflow=hidden;rotatable=0;points=[[0,0.5],[1,0.5]];portConstraint=eastwest;whiteSpace=wrap;html=1;" parent="J-gtvcApfh8FxLfmaqBg-19" vertex="1">
          <mxGeometry y="26" width="244" height="26" as="geometry" />
        </mxCell>
        <mxCell id="J-gtvcApfh8FxLfmaqBg-21" value="" style="line;strokeWidth=1;fillColor=none;align=left;verticalAlign=middle;spacingTop=-1;spacingLeft=3;spacingRight=3;rotatable=0;labelPosition=right;points=[];portConstraint=eastwest;strokeColor=inherit;" parent="J-gtvcApfh8FxLfmaqBg-19" vertex="1">
          <mxGeometry y="52" width="244" height="8" as="geometry" />
        </mxCell>
        <mxCell id="J-gtvcApfh8FxLfmaqBg-22" value="+ addTag(RefTag): bool" style="text;strokeColor=none;fillColor=none;align=left;verticalAlign=top;spacingLeft=4;spacingRight=4;overflow=hidden;rotatable=0;points=[[0,0.5],[1,0.5]];portConstraint=eastwest;whiteSpace=wrap;html=1;" parent="J-gtvcApfh8FxLfmaqBg-19" vertex="1">
          <mxGeometry y="60" width="244" height="26" as="geometry" />
        </mxCell>
        <mxCell id="J-gtvcApfh8FxLfmaqBg-23" value="+ removeTag(str): bool" style="text;strokeColor=none;fillColor=none;align=left;verticalAlign=top;spacingLeft=4;spacingRight=4;overflow=hidden;rotatable=0;points=[[0,0.5],[1,0.5]];portConstraint=eastwest;whiteSpace=wrap;html=1;" parent="J-gtvcApfh8FxLfmaqBg-19" vertex="1">
          <mxGeometry y="86" width="244" height="26" as="geometry" />
        </mxCell>
        <mxCell id="J-gtvcApfh8FxLfmaqBg-29" value="+ addRef(str, str): bool" style="text;strokeColor=none;fillColor=none;align=left;verticalAlign=top;spacingLeft=4;spacingRight=4;overflow=hidden;rotatable=0;points=[[0,0.5],[1,0.5]];portConstraint=eastwest;whiteSpace=wrap;html=1;" parent="J-gtvcApfh8FxLfmaqBg-19" vertex="1">
          <mxGeometry y="112" width="244" height="26" as="geometry" />
        </mxCell>
        <mxCell id="J-gtvcApfh8FxLfmaqBg-30" value="+ removeRef(str, str): bool" style="text;strokeColor=none;fillColor=none;align=left;verticalAlign=top;spacingLeft=4;spacingRight=4;overflow=hidden;rotatable=0;points=[[0,0.5],[1,0.5]];portConstraint=eastwest;whiteSpace=wrap;html=1;" parent="J-gtvcApfh8FxLfmaqBg-19" vertex="1">
          <mxGeometry y="138" width="244" height="26" as="geometry" />
        </mxCell>
        <mxCell id="J-gtvcApfh8FxLfmaqBg-28" value="+ getRefs(str): set[str]" style="text;strokeColor=none;fillColor=none;align=left;verticalAlign=top;spacingLeft=4;spacingRight=4;overflow=hidden;rotatable=0;points=[[0,0.5],[1,0.5]];portConstraint=eastwest;whiteSpace=wrap;html=1;" parent="J-gtvcApfh8FxLfmaqBg-19" vertex="1">
          <mxGeometry y="164" width="244" height="26" as="geometry" />
        </mxCell>
        <mxCell id="J-gtvcApfh8FxLfmaqBg-35" value="&lt;span style=&quot;font-size: 24px;&quot;&gt;@create &amp;lt;name&amp;gt;&lt;/span&gt;" style="text;html=1;fillColor=#008a00;align=center;verticalAlign=middle;whiteSpace=wrap;rounded=0;strokeColor=#005700;fontColor=#ffffff;" parent="1" vertex="1">
          <mxGeometry x="-204" y="53" width="400" height="66" as="geometry" />
        </mxCell>
        <mxCell id="J-gtvcApfh8FxLfmaqBg-36" value="&lt;span style=&quot;font-size: 24px;&quot;&gt;@from &amp;lt;name&amp;gt; @import &amp;lt;alias&amp;gt;&lt;/span&gt;" style="text;html=1;fillColor=#0050ef;align=center;verticalAlign=middle;whiteSpace=wrap;rounded=0;strokeColor=#001DBC;fontColor=#ffffff;" parent="1" vertex="1">
          <mxGeometry x="-203" y="362" width="399" height="66" as="geometry" />
        </mxCell>
        <mxCell id="J-gtvcApfh8FxLfmaqBg-37" value="AliasTag" style="swimlane;fontStyle=1;align=center;verticalAlign=top;childLayout=stackLayout;horizontal=1;startSize=26;horizontalStack=0;resizeParent=1;resizeParentMax=0;resizeLast=0;collapsible=1;marginBottom=0;whiteSpace=wrap;html=1;" parent="1" vertex="1">
          <mxGeometry x="544" y="53" width="241" height="138" as="geometry" />
        </mxCell>
        <mxCell id="J-gtvcApfh8FxLfmaqBg-38" value="- parent: RefTag" style="text;strokeColor=none;fillColor=none;align=left;verticalAlign=top;spacingLeft=4;spacingRight=4;overflow=hidden;rotatable=0;points=[[0,0.5],[1,0.5]];portConstraint=eastwest;whiteSpace=wrap;html=1;" parent="J-gtvcApfh8FxLfmaqBg-37" vertex="1">
          <mxGeometry y="26" width="241" height="26" as="geometry" />
        </mxCell>
        <mxCell id="J-gtvcApfh8FxLfmaqBg-39" value="- name: str" style="text;strokeColor=none;fillColor=none;align=left;verticalAlign=top;spacingLeft=4;spacingRight=4;overflow=hidden;rotatable=0;points=[[0,0.5],[1,0.5]];portConstraint=eastwest;whiteSpace=wrap;html=1;" parent="J-gtvcApfh8FxLfmaqBg-37" vertex="1">
          <mxGeometry y="52" width="241" height="26" as="geometry" />
        </mxCell>
        <mxCell id="J-gtvcApfh8FxLfmaqBg-42" value="" style="line;strokeWidth=1;fillColor=none;align=left;verticalAlign=middle;spacingTop=-1;spacingLeft=3;spacingRight=3;rotatable=0;labelPosition=right;points=[];portConstraint=eastwest;strokeColor=inherit;" parent="J-gtvcApfh8FxLfmaqBg-37" vertex="1">
          <mxGeometry y="78" width="241" height="8" as="geometry" />
        </mxCell>
        <mxCell id="J-gtvcApfh8FxLfmaqBg-43" value="+ getter/setters" style="text;strokeColor=none;fillColor=none;align=left;verticalAlign=top;spacingLeft=4;spacingRight=4;overflow=hidden;rotatable=0;points=[[0,0.5],[1,0.5]];portConstraint=eastwest;whiteSpace=wrap;html=1;" parent="J-gtvcApfh8FxLfmaqBg-37" vertex="1">
          <mxGeometry y="86" width="241" height="26" as="geometry" />
        </mxCell>
        <mxCell id="J-gtvcApfh8FxLfmaqBg-44" value="+ overload &amp;lt;, ==" style="text;strokeColor=none;fillColor=none;align=left;verticalAlign=top;spacingLeft=4;spacingRight=4;overflow=hidden;rotatable=0;points=[[0,0.5],[1,0.5]];portConstraint=eastwest;whiteSpace=wrap;html=1;" parent="J-gtvcApfh8FxLfmaqBg-37" vertex="1">
          <mxGeometry y="112" width="241" height="26" as="geometry" />
        </mxCell>
        <mxCell id="fT2Pya8mGyMh9tEKKUGy-1" value="" style="shape=image;verticalLabelPosition=bottom;labelBackgroundColor=default;verticalAlign=top;aspect=fixed;imageAspect=0;image=data:image/png,iVBORw0KGgoAAAANSUhEUgAAAZUAAAGCCAIAAACn6slPAAAAA3NCSVQICAjb4U/gAAAAEHRFWHRTb2Z0d2FyZQBTaHV0dGVyY4LQCQAAIABJREFUeNrt3XdgFEXfB/Df7F7L9bv0kB4SSKF36UVBQEFERUBEUbEXxO7zKNjFhh0VC0oVpYrSe0+BQCgppEJ6u1y/2933j9BJQpH3gej385ceuZ3dmdnvzszu3bEAcwgREZFEJAheh8sml8nUGrXeoJfL5XK5jDFGAADXjiiKXq8gCEJ1VbW1zipKko9Sw/MyFmAOkYiIyOG0SiQGBgbo9Dqv1+vxeCRJEgQBdQcA1xZjjOM4IlIqlRzH1dVZy0rLGHHM3xwiSZLNYdFo1MEhQW632+PxoL4A4LqlUCgUCsWJ48XM3xxitdfq9Tr/AD+HwyFJEmoHAK5/Pj4+PMeYVqsJCPS32+2oEQBoLrxeLydKgp+/L8ILAJodLiDA3+VyoSIAoNmRqXxUbrcbFQHQ7PA8r1KpZLKTDzlJkuT1el0ul9fr/ZeUwqKjo9EPAJoXhUKh1Wp5nm/wX71er91u//vzquu/FN5kMqE3ADQXjDGdTqfVauufh2oQx3FKpZLn+St+Fqq5lIL8AmhO4WU0GhUKxaX8sUwmk8vlVzA+akalcOgTAM2FVquVyWSX/vdyuVyr1f6DS8H4CxrHBXYZffddt/X3K9qdWYMHm68xpVKp0Wgu910ymczr9V76BwGbVykYf0ET/SV+1LNPP3DXjQmG66mfaLo8NX/r7vWzxsXKiIhTmsJaxQWr/vmtoVarr7DCLicprlUpDS6BXfjieaUgv/5R9Ld+kXow42Dq/EnRZ93NUbadsnz/wYz0lc8k8dfFbsp7/HfjgYyM9BVPJTa4Q3ziU8vTMzLSlzwWxzcwKGzfM8GsDezcM0HL6W/9dMfWvxa9MSz4H96T5XL5Zc22zhu2XOJ7GyxlUyOuYikcx82YMWPYsGFnvzhs2LAZM2acF2HnlSLDOf+Pmu+FBPGMmDLpngf6LHplY51ERMx/yOQ7o2WMpIAWwXI6eB18o4j3cPph950ByhatYnUso0Zi/qM++/35zizji7EP/lwgkiY6tgVHYnXGgfwL91bMXfz2W9rBfkd+W1MjKTie+1d8v5NcLv+bc89LeVyrsVL69et3YahdxVJEUVy/fv3UqVNlMtmyZcuIaOjQoc8+++zMmTNFUWyiFIy//kl4/yB/joiI8xt838hQjohI1uquib20jIiYIiDIlyMidfcnf1i2fvveffvTdm9cMuulW2N9iIi4iCFTP/xhydrtyfvS03ZtXPRUp7O7mTx67LfbDmQc2D334TbBI79Ky8jYv/CBKI5I1uWV9ekZB7ZO6yknIj7uzne+W/THhh3J+/an7lr362fP3dpKe37CSJaD6bkCMVlcfEueiLSd+3Qx6XTGDn17+HNEsujWMXImeY7sP+xuYK/U7e6aMmnCw0+NanXq6itLemblgYyMjH0/jQ/miPiA7pPenbt6V2ra3s3Lv31lZCtN/Q40fYD/6Pxq7Omq66eUVatWffDBB0899dSIESOGDh06derUmTNn1mdZE6Vg/PVPojT7ahkJlaXVxoD2d9/dbuH7aYqe40e35Kxl5by/v9Lka2R0nNyCLiRQ4awqsan9gmJ7jXsjyJZz+6cZXFTf0YO7asljq6py+Oi91srTgx/OeMPUj6f2MAqFS1955puDrlsb78IhHfp3T9RKTktllaQLjB8w8a0uicZxD8zJOfu6LOan7qsQ4oP84uMDueTKjr07qRkRKdr16WZYtIKPjQviSMhN3V8pkazxvTqTh86q48W1HvIWWwTSdJny7Vf3tpS7q4+XOs2RPca+8Y3ZdfvUPyukS9nU9epvfo1oEw9YXT+lrFq1ijH27LPPEtGHH374xx9/XLQUjL/+SdNHo9nEMRIOLfhxh40Lu3VsP1Pw0PGD/aSCpT+trRCJGU1Gjoi8Ke/cfEO/YXdNuHfMPR/scpAsonPHwFM9QSyaN3lAv95du9/7U97JkbsidvyHM8bGyCo2v/Po9HVl4sX3RDy+8NFB/Xv1nzA7w8V0nR6Y2OO89XXPoeT9DolkcW3jVcoOfbsbxSPbdpSJPp36ddcqWiW1ljGhMi0l93RRDezVWYTsnx6+dfjw4SNfXF7hP3zymBi5e98ndw4cPGTALdO3WZnvgDtvDOAubVPQrGD89Q/CDCY9R5KjNmfpH2sm9LxtwD3PeHRdfVz7Fy7coe70DDG1QS8jEgJ7P/3WK2O7hficWjryqjU+5w9pPB4v1T9ayAfeMDiQxJrV77266NjlfFRWsuyfv3T/vYldDQmJYdzWrLPTwp6256D7pu7qpPaJHeW9/MTMRZ/+HNyq+6juA3omHEvSc5ItZXfGBQ9cn7VXjXXo1u0SlYyx9s8sS33mdL4FhwVzVHrhppqPC5eBLsslfq/ftS3l9JqXx+M5ey2siVKQX/+k8ZdWp2UkWi0W644FS46NmNzx9hEk1q6ZtyLfcrNVIsbp9Fqm7Tnlrft6GOr2Lfh4Qaqt9ZiX7+2kJGpi3iBaS0qFgGDDoCkvD0l74c8SURJFUSJiCqXiItMNyeP2SkTchavsYvnunVlC96SQ7vffZw6ivBWbj+wN2F4z6taedz7cIpqXXGk7ku2XfMawM5vnOI5Ich7965dNBaemh1JNaonYvCcbHo9HqVSe92KDi+jU0HL7JX7WusFSLt3fKeXCNa+pU6cS0YURdnYpyK9/0vhLZ9AxIofDIXoPL16QfO8r3VTiiZXzNlRLPg6nVB9wMt/wMB1H3kPLZ81bUS6r7DZlQqeme6xUveb1/7ie+vqBhCGvvXsw68Gfsp2VFTaRTKHt2vlzRysaXAaTyTkiWUj/AYkykmy5OSfOX2oSC3buLHgyKTq+T08ScldszBQcBeu21tw6oluvdiS5k3fsrr34xVxyWa1uidTBsTFadszCZDIh50i2d3h7uUlZ/Nf3izKtIilMLUzuE6XNfKrY4Kf/Lsypxlzi53sa+yRjY0F5tUrhOG7gwIFnr3nVr4UNGDBgxYoV543Xzi4F+fUPii+VRi1jJLkcbonE4pXf/dRLbFP95/wUF0nM6ZKImEanEUsOHa4Q2gV2e3bugsH5Fl2M/uJLtpI17YsXP+s4f2qnzo9Pm7Bj4uz96zeW33Z74A2vrtz8sIU3+J8/suGDx36z5cZqr97fqGLe/OULttZduGh1dNOW4/dHh/Mk5K1dc1ggsu1evaX6lpG+nOQ9tGlLyaUkjufg7jTb0N7mm2es6Vzh8rEvn3z799+uuHvmbaEDXv1t69M1Vklt0DqWPzrg1a3N+0uiBEHwer1X9giY1+u9xJFRg6VcYkr+nVJEUXzuuefOy6k//vjjzz//PO/F80rB+v0/KL80Wg07fX2S6nZ8+tgDD776W65IRKLT6ZGIqTUazrV75jPvLU0r8vjGd+3eLUZdW5CxZ2+25WJBkfPLG7P2O0jd7sHnR7Wwb53xxFuL9xZYmN7PV+mpLDi0Z0t66ZkhluQsKaqSGbRUm7fjlxcf+3CPraEOn7Fxc4lAJOSuW3tEICKy7/lrU6VIJGRu2lR0SQMmsXTZ9Je+35pTLfj4+iotFreCq940beIjnyxLzqsRfAwGhas0M6PYrWzuD4lJkmSz2a7svVar9fovpcFFsQtfPK8UfP8XXFWKfu9s+fxWddFPE4a/v8+L+ri6dDqdSnV5H5VyOp11dXX/1FIw/gJoNqxW62V92Zbb7b7cWGlepSC/AJrTLLK2ttbpdF7KHzscjtra2n92KZg/AjQ/SqVSrVY3tpzv9XptNtvf/12L678U5BdAs8QY4ziu/peoT//mhcfjcbvdV/GXNa7zUpBfANBcYf0LAJBfAADILwAA5BcAIL8AAJBfAABXi8xut6MWAKBZ5pfZbEYtAADmjwAAyC8AAOQXACC/AACQXwAAyC8AQH4BACC/AAD+Vy7p5+TwjD4AXCtqtfpv5VfTmwAA+H/S9OAJ80cAaK6QXwCA/AIAQH4BACC/AAD5BQ1Sxg178oUxbeV/f0t86zumffhkHz27Gk3q3+exd6ePieP/iVXOhw14+PmJPYx/v6L48KHPz3hxaMhVPQP41ne//82rN/ux/3GthA//z1fv3BnF/+tOwWaeX0xu0IdEaOT/LxuXJT22ePvqaf0aSxWmShh+313dW/BX47TsPnxAUoDsqtSJKXHA4O4RWtYM25OPHPvd1o2fjgxqrF/y0YPuvbtflOrvHxwL7DB4UMfQv70l5jf0gw1b59zXkiciPrBN7y4tTbL/Qd2fXS4zt76he3ygEuOvy3y3rlXsTU8MfvLrsdMXTXxr7tgXPhx81z2tYgL+N9cBZhp+8+s/jH78kajLHrfI+7y5PX3LB0PM571R2+M/q9NTPx2mISKSbGW5uXnFtR7pWrWOZsAbG5LTDx48eDB9X/K2NYu/feOhfuGq/7e+8P/amnzbKX+k7559d+h5XU6R8Phvafvm3NOCIyLJUVlwLK+o2iVdFydH2MS5+9IWPxovP/9qM+6HPfuXP5XIExG5q4/n5uWXO67eLutGfJma/ter3TXn9XffoR9tTd867Yb63bn65TZDV37Fl+naThowarCv0m7JS8vbU+YS5D6+0UHxI3t2GJq477uNv62v9vx/BxjH2BVd6ZguIEDNm2966qGFm9/d6zh9SK3umTKqBc/KfU0c2UQh99fnxv96TU8gndkoz/z56bdXV/Jq39C2N02Y9Onctv+968mlJ8Sr3A/+31tT5hfox2nDH35y4F8vrK0+ddJxobc/e08rBZfnZ2J0nMTS1dPvXX3dXNz9A/04RYsJU25bOnnR6Rpn5kFPTu6s4Wp8TRyRIFl2fjxp51UdhPoH+PF86Kgp9ywa+3Wm99TL6i4PPznIzHt9fZVEHjq73H/vKtAVHjlTtX5o8JjBBuvm7bPeSitSBbQf2qb3kMhwvSNv9cG0Mm37Rwbd0lF5Mltk2laj+z7y5dg3F09848fbHxgdICPm273TmNdHvPDThLcXT5z+w6g7e6sZEe8fOuCZ4S/8cu/b88dOnd6zR9zJLcgS2j/4yZ2vLZj4zq8T/vvlsDtHBGnOii2+Vdfnf7//vSUTnxhl4IhIaWhzz8Anv7vnrUX3vPLJTbf0MykvyDjOz9+XKvMLDaMeHXV6PMB8Bz8yLrIkr0Qy+pkYEfGRk+anbfpvj/rLHdPEjXjhq6Wb96al7t60bOZd0fXDElmnx+ev25mSlrJ15Xev3BJzcnDEx034auXm3Wnp+/duWvLlM/2D+dN9s9ukd+es3Lwndc+GxTMf7RV40cGNZCk4sG9f2t4d65Z8/eJTXx/Q9xp9YwhHzHz7rLTUj25SnNxuzORf09a93KWB65EitP8TH8//c1ty6q41896d0OHCtaNLb02m6/j4Lc/9cM9biye+9ctdT73Spd2p2TPn22Lgc7e+9Mu9by8a/5+vR4wfYjq3azGDv5/clp8vDHpkXOvT4xlN9/vv71CVVySZfE0cETHDyK/SUj+5+WQ1KsMHPjnz1/W709L2bl01+8GTK418q3tn/bk9ZV/KjtU/v3l3kq7+eLgWI95bsmFXavr+lK0rZ78yPFpFV1znpyLX19+XivKqO02a1O30x0/kCeMeHugtyHeofX1VRESKvm/vTPtx7PlTXmbs8eKS5A0zbwuXETF9mzGvf7d0w66U5C3Lvn5ucERTUz3mG+ArFeeVRI17+KbTEwQubNSjI/VFeVV0sqoaK1ed9PDcXdt/uK+1ihouV9Xnza37V05pw5/azxFfpKTMGu3L/j35JU9od+tAnWvfnh8Xin2f79O7k9Z+ODc9060LDYzWlC55N/mYW9dpTCs/joip2z4xdOLYmMgghWR3eZVapeASifl3bt2+na9Jy9w2D2kUQp2L9GEjpw+6qbe/zmOrquN8k1qN+G//7sGMiCRBbvCXearrqmpFVVBgp3sHjOhxJpQkt7PqeG358dpqqygxbcenbx43KiJY7aku96jCQ3s9Ofj2nj7s/L7la5IKfv9gTl7bifd3V5/qlw/2qfvtvTlHRLOv+fwuzoXe/sH304cot3/+wqOPPvv2TyvSi4X60suT57777COPvjAr3X/UGx89lCgjIhLLUxZ+8vKjE8dPeuHHvOh733l1uB8jImWbR7/64r7QjNkvPXj/lG8zIyd99N7YiMuYnkl1tXUiU/lc+qIN0/V84dsPb1Nv/+yZ+ye9vLCi45RPXx963vLyZbQmuTmDQSO5akpsTpk6uHObu55tE8wTMZ8OD/W/8QY/nWQrybU4FFq597x5DWc0m6h83cxvk0PGTL6x/rTkwkZNvkWx5rNZyVaV2XxBI5kHvf79R2MCD37/6mMPPzVt1m97i06ORWoPLvn4hUcmT/loi2zQSzOf7aEmIhKrDq34+vUn7h8/8enP08y3TXvj7kie/ladM72viavd89Vna1W3Th4VxtXv1OCHxgQnfztzQxmZzKbGtsN84u/7eMYI67dPvrSkwMtHjZv5zTNtTiyc9vD9j3+023D7O588lNj4mq3MaDaIR3567zdrvwfHnZy7qrtPmtgmd84HvxdIJl9zo2etPGLUO5/er1763JQfjzip4XKdaVv3OEK7dQuv33lFYsc2XNae5JpmOQ+9ovmjrOXAGLNUu3l+turGEa2NVLVq/RffFgvd+yUmaIlILMnZs79TdOcWLU0HqsyJN/XUclJdyod//r7D6uXkSplHPBmbkn3j+rc+LxJ4Xkai/8gOnQI576E9M18/WC74tJ9625gbgrr3M+2eXyVkJn80PpnX+GjUyqhxg+/s4xPd1pfbUVy/N2Ju+ncvHayUiIj4+G43dlWTpWDxlPUplcw8bPCUScGJgyMN2w+f3T4yg0lPloqUBd+su/ut+2/9bteCYsOA++4I2jvzx13lT7pVZrOakfvsI24/7sEbXEsff3LGVuuZTqogIqFg18p1O5xEe/aLiX0/6t078ouMbEGqzti0rv6vDpaEDlrxQIc42bIKVb+JY6P2fTJ0xpJSkWj/ET6p9ydD+ofM/bHw4tcZucYUmjDggXu7iJnfbcoTLvXyFDh80kjd+henfrG2TiI6kKfvtO4/Q3vqVy2rla6gNcsrXanvzE1hMrVRqfKPHfNmh/Cw4CjT/uJqH3OgjJF4fNn6WYurvcRxnCidN/7yNVJt1dFl3yydMOv+u2JXf5Up7zxhfFLu3Dc2FIx4nEX7mTmynDUr5qNuf2iIZvN/75q+ovLMphREJJSk/LVmW4lIe1ItMb1/vLFvgmxHspccWdtWZxERUXq2sffQ19snqCjPpmuszosvXnlGk5EsGYUbVsybuOCeCZ0Xv7XHE3vXxF6WJQ8tO9ruFmbyMzMqaOCNqpg7P3hzsm750w9+c9BOJO847r72RT/cOW1+lkC0L8MR0+vHIYNbf5lxQGgkNo2co7h094/fJ4988r4BPz+/2hIyYtJQ+dqXF6Rq2jKzr7Hh/OJDhkx77qXYna/cP2NHtdR4uR/v3rDb+Wbf3sHf5xaJfEynDrrjm/YUCvRvyS9eHxqtIEteVp68xTgtJ7mOpZS5zt6U5Kkpc0pMpTNwhvgAM09iQc623VYvEYkel/uCDQqClxQt4kwcIz6x69Rfu57+F2OglqNqTfsOdzyYGBsk505dohU+Dd7iYYZYPwNHTB9+53f33XnqVdFfb+So5kwDMY1Rz3sqLc6ard8vLJp3z7i2y37rdF9/27KHV5Z4Ey11FGHUM6o5OwaSkgK9B3alWJuoFldhfonUxWxiRKSKHvrY0/f0Twr3U3vrnCqZolDBiA+Pb6VRhr/8V8qLJ/eDl3Mlgf4cNZVf8m6vbjjwav2BWI9t+PaJt7894iW6tBEY3zI+VmHoPGPLoJMRwPFyOhLoy1GtcPmtychm6vxgr8G9/bSnRw+CXKkiEmqP7q3pG24OHzvipZ5FaavSN28oqzs3DAwGHbPWWR2pP8/Zd9vkiX3mzTTfd4vP+v8syvGY66xkMOrP3XWfhDYt2dGle6ubGBd4i/KKRKPZyBGRvEXfB56eNKRDVKCW6hxyObdPpWDkbLTOL55fTG/UM6ulzpO9aPbG8dPuG/bdkaqJd4WmfvlEmsMVZSOD0dBQK/DxD33YUXb0g1Ef7qyWiIgLjG/lK2/1yKLkyad2QSZzBgXwRA1mBqc36Jk1s85bsve7FQ98dd/oqC3Jt49vnz//7o019n5Wr8JoVBFdcBbxoWPefktV/MO4aWtKBGqqXOng1j+3O98e2D/4l5+Lgzp1blG5c+uR5hlfVzb+UviomWRx2iXmV9/DpfP7mFzJM3K6nBKrjxxRusjolDGOI0bkPpazI9V66jIseXNrRZ+wm59q10rvPb5+z/b9Dn2vzjd105xz/jLGGJF0ckWfiCRLafLakjrp9KyrtEY8d1lcryNbgV0ib+aC77eNe/mRV1rERB/4YWqKk5jNaiOdXsfO2z3W0GGedzZ5vcRxjJGi/eOfvX1b5dz3XnrzcJUUMuL1maNPboUky/o3Jn6acmYt3Ftb7K0fVjS21QPfPjLtz0oubOT09+7kCpMPlAknQ18k4mWyBrryuXsunfj9+cd+yjrTQd3VRcIVtSb5D+05or8fV1G0fnFOqde/zyMJoay+JYSCeX9+dTyp782xibHhvR8JbRO/8dPP8m2nt8TUOp1MtNvskli1bPaqSTMfeJ7Xdi1eNH5jjSSprHbS6rUckXj2zZlLWNsQvAJxPEfER0+Y8dH9ipXvvzZjf6lbP+CFWQ/TRer84uMvrV5Hdptdkqo3/LDokTn3TnnB0t/9x1MrikVJZbNJKp1WQXTBbQ3xxLZVNV1uf2jaxJTHZmfY6/fBkzxz/Bsbz3yTgmQrbex+CNPqdWS32iVyJM/55eDvE598pUtn/ea3F2UJJLNZbRSk1507VK0vtjJ5dXbcLWNfe3zXQx/vrpGaKFdyb12+oe7jITeFzlvW+Yb4uu3fHPA0z/i6svUvr8ctkVqhlJxlJ5wiU4RE67izOz6naxGjIkvViXKxNrfKKhELi+reXs0TEXEqdUOLBpKn+JhFJJIZZFXb0tfMTVk9N23ruswdO2slvc5Xw0isTV+akbLt2OFjp++tS06rR5KICzAF+hAR43mqPVZllYg0KsrN3DAvZfXclPUrM3evKTpvcq/Va8nlcEpEUtXaH5ZU97htoGztj8uLRCJy2J1Mq9OeUzFi2dHMKlmb7h01l1SnpviEEGHv/M+W787Iyjp8ILe6vq+JBUezHNq4aG1x7hmFVc76gyFirKHWkOylOUePHs1Y9+HUD1ID7nn7hb5mRkSSo6rSxkfENLCUI0lEXP3ZLxw7ku0NbB0hFpxV5PEaz5W1JpmDdTyTnBlHNq7J2b+1pOrMOcSpTax0c8q8FxZ9MKvISZyhS3i47NyTUktuh0MkIvvuOfOzE0YMC9w9Z9ERL5HksNtJo9OdeyT2zKP5LK5b50t7VFUem9iKz/j9q9+2H8jMPpqeVXYyoJqs84uEpFKnU5DD4ZSIPIcXztkdMGxEQvaCX/Y4iEi0292sPnMvqP7a1G8fe3DGoZgnP3vrlhY8iWWZmVV8TGxQZd6ZXcgrs0uN55eWHA4nEYlFS39Yyw+8rUfN0jnrqiQiyWF3Mp1e00CdSI6jC569/7WtxgkffTg+VkFNlmvb+euKkoQRI7r17d/BunltsvPf9PyEWFdyXGSd/MMDpW3rjhYP7Nhi9KAJ5oKa4AAZEYtvfetTyjYxUvGvR3M95D2YseVg9PA2xu6v3NmxzuWRKeTp2956L/fCjRav2X9wYN82vhG3fTxuqMUtqhQ+rGjRpHWpVVXHq6TIAL9B00a0KnLwgbrTfcZ5+HihOzTK2HLcrJA6t0zctf6D2RmbDkTd2tbQ5dnRHR52uZjcR+1JeXPh4tSzRxycRqNmTkf9CrM7/ZePvtF0yv95ax0RkeiwO0irP+/pT/feX37cN/TZNz+zfTV3W24dbw4WD6/cWdtI/VRnZ5fLh971yNCKtcfqRHOonqMqIpIsG39alPP9Pe9+7J61aFeBTWaODHPuWLS5SCCxpqaW79p/eMdtC1KKG+lM3tyF/33/hkXTX31m7b7/bq7xpK3fUn3r3a++WDp7Q66Vi44+9RCcZKmpkXy7DB7QMmt9dvEfP6y899PJM9/nv12eVuxUBcT4V6z5fXeFeCWtKWmzqzwDQ3x69346uLLKqQqRnRz2Eu/b741hN2jtNVVuZjIoGYllddVnVznTaDXMYXdKRERC3uJPPmsxyP77n2USEUlOu0Pi9DoNI9dZQ6vMX3/YdMebL3/5mumHNUeqyBCqyP9jU34jfdKTm5krTRr54IjcZUeq3cpIX75+ctZ4nUu1VTVceI+be6z6YXuBe+CMHR+2/PHO0Z8fFc5EslbDidUOl0REYtmqLz+JL1Gv+61+7bG+m+i0jEobuuY4M+dOfa7FnC9feXvC0Qd/2Dtvzv5hU177zBLw8+bsWjKEt+QPzF2dKZCsy8t/fXfj5sk3vbHrzCWF12h8yOlwSkQk1W397sM5roiUuenu+pCyO0ij0zWc6ZKnaMWrz4TM/v7p9x7PuOej1EbLJXIfWLzo0N2Tpj/hY9/8ZPONrysaf0murO3HnZzfDaPDVLnpc97fd7hEHjM4sX2w7ei+ars+uGN7WcGSjXMWVXiJSKjd/u6qhUvziyo8TKNUio6yOqnB22dS5bGFr6xbu6W00iLIdQq5x1F6tM6tYOQpXjNj554DtS6NMaptSAujUJNfmpllE4nE4sO/fpqRedwpqny0So/dzcmF2h3vrJr/e15hmVvyUap4T21uRY2HP282qNZqyGE/2WpiyYbPp81Ycezk/USH3SHJtbrz7oYJx35+4oG3Ngi9H3/vq9lfvz91TPeQxud87uTPn3t/i3zIf2bNW7Tw549G++Ufzq8Ricixb+ZDD3+arL7x6RmzZs/64IWx/WLqhxfetLkzV5TEP/wMnBanAAAbs0lEQVTMkKZu7ovFK96ZuVNz6/OTO/mQVLfp3afe30R9p3w4a/Y3nzzewb5/z5EKiUgs+3PWd3tVw16e2F5GUs3mN+9/6ofMkNte/Oib2V++8/TIbmHn9v7LaE2pZt22eYvzT1SRMTYkNsnA19YWpZeU2ol4Zi+utnI+vhEmo8xZvPfAwo8PlojnVrn61ElJJNXu/n76WwsOnmqBk9eMczujWLL8xfte/L2y7X3Tv5j9zUcvj+/fxHPKQuZPL09bbu327Oe/LFo075tJ0SVHcso8UhN1LmT//sX8oyFjnx8dw5NcpeKk6orqc3dZoyaXw3nyNefBBW9N/373yfseksNuJ52+8Q85SJbdn7z8XUHSY9MmxrHsnx6b9OZad/fJb385+9tP/nPfgNa+akZETKFUStUVVecU66PVcOS0n7x/KxxbMWPa5xtOVqbksDlI1+Cw79Q1PeO7lz5JC5kw/fEuam9j5RKRkL/kx/UU6Ff259K9zTe+iCUkJFz0j+x2+3nfvyoz9Zk2fGi8WLhi+8L5eRXNuAIArUl86yd+mzdg7d2jvzj6v1zH5oLGfr9qUvYjN7+5230NDjr6wXkLBqwZM372set58f7C8Pnb6/dE3uqt769XTunT/5YBU/rX5KWXFpc6XCKv9tVpCg4sWFouIBSakX97a3IBbRKNB5aszP7fHijTJrUJz18+I/V/G16qkLhoH0nR+vYXJ+pXPLcot1m37hWOv06+WRHYJbZrn/DoliazWSGXvI4aW+mmXT/OL3YjFJpfV/hXtybP84Ig/AuK5eMfnj/n0TiheP+qL6e/tyzHdZ03TNPjr7+VXwAA1zC/8P1fANBsp/6oAgBAfgEAIL8AAJBfAID8AgBAfgEAIL8AAPkFAID8AgBAfgEAIL8AAPkFAID8AgBAfgEA8gsAAPkFAP9Ov/76K/ILAOBSya6HneCMBr9WBo28rmh7tUe6WltlyjA/c7RWXl5ceMgpoan/PzClqXuIX5jKufNIYeEl17HOFNYvyBjoPvFzTuUVff06ZzL4tTJo+LqiHVexw/y/V5Yi1Nc3WqeoLC7I+Nsd8spq/n+5wX/N+Iv59Grb7ZkOSTeaFRe0eMCEfjd/f2O3G3XssrcqDxzXvesjbVomKZtXJMhMWmOossHjZaFR3T4bOuTtpADd9bGzvDHy/jYJt0X6mdml7x4LDI4bExfd10/NX2EVqXu36/Z0h6RBpvMvvxyvDDLofflr0Id7dhw4e+iAR1r4NNpTZYF39+j6aJuWbVVXveavxw1ev+MvpvC9pV3bYYFaH68t/Vj6N5kVFiLiTGP69hqhtf+xY9Mvlef+pArTDO81YLy5gbAUag+/uOV4o+mq8e+oV6iZfwejfF2d+58/iGLGu/r3Hqmj1NS/ZhR6LvhneUygv5+cNwf6BWaU1V131XGNd4+po/8zsE08Vf2yYdtK29UqXtajy5AnQ3jRmj19U8bpn4dkyhZP9u/UQyllZWx4LdsmMn3bIK1GLnUM0PPHHd5rOiSJi+vxUITOV6VQMcnj9VTZag4V5688VnzC+887Ya4kv7iE1p3GBHNH87IKdJE3tu50V826b8vEkKjEm/WsuiBjaWUDvwclSpIoSUREjHFEEkn1/ydK1ERHE2pyvjkodZbXbDjh/pfMADnGWKNV4t6VkeZnNVhLcnKux+q41rvH2NWfTjCVvw9jRLw2clTYsXfz6n8Wm4uIiuuqZETkq/ZhZCOx/LfUQ3W+UkZu+TVPCa3W0EItJ5JEkWRyZZAxMMgY0N0/4z87co5LyC/mE2lQMlf+4oNHjphkHXtGRRp8eItpbJxZ4S794Uip9cK3SLZV21auIiLiunS6eUqozFuSNnl3of3U6Kw9EREXGdd7doKc9zhySnLmZuTmeIhk/sMSYzsxq6e0eH6NpDKEj0ts2c2sUZPX4qjbfmD3vLJzlz+Yqk1s0t2RAWFKVmdzyc4ZCfNBwXFj4kLb6FW8x3b0xLFfj+Rln/xlQ84voOVdceHtjT5q8pRWHft6V2ZRi26zOgZx1qzXNhzKpvrxIx09uOH1HBunj3goKTJWp/FTyHjRVVheuK1G0T40KFYj9zprknMOzjlWbSMiIrUh/M74lj38NGrRVVhRuCTj6F6bSKRo17r9bcH6AKVSp+BEtz3rRPYvh/LzznR8rlPHoQs6Eolls9bs3HhmiYiFhbUeFaMVNXVbKwrtTNU2rs1dEf7hSt7jcZZVZn+enFt0VnXw+oiHkiJbanyMSrmKCdWW8o2HDy4tc9RfXnwMYXe0btnDT6sl1/GK4ysOHd1eJ7RMGDAtVitVHpyyPaeMDHf17zvS58TM1cm7vLJunW96uoWsrnDPE6kljSxanbN7riZLP03jl/ha95bhnGv/ge0f5NZ5lb6D41sPDjb580JVbdm6Ixl/lDsFIiIuMLj1hNZhiVqF4LTZ5IwaS3nOPH7QreOJhJpDz23JOiE1eKRNhAwf4Bc6MCqylTX9jcPVAlP5qeq7kSwpJjq2ICNTJKYIujVSxxMRMZ2Pj4LIwXy6xrYebqZYZ/G+HJtEpNSG3BYf28tfb+JFi7Xs95TktY6To8RB3YfcLJd5nLX78g7Nya6olYg439u7t+1v0JjkzOt25JblLczIOeyqj0qfdi0Tbo8IjFJxDnv13mOH5udWWy/hNPWW7ntkV4Gd94mL6fhcaz+Nb/gN+mOLvdGvD0hqdXKISvXNLZakTt5deOGPfDbWe3t2vGGAeHxNbkFyrUtofvkluWtcIhmMSWa95GfSM6nIRe3j4zsqxKyMQ1sdV57wCjlf5/bKFZqEiDbPkv3ZfaWOc84O06jO7QdpmdtpyXOQXqPkvcK5hXGRcd2mtjYqSXK43EqNWn2mkzO/sE6vdwg2Msnt8YhyXbuodq2MimnbMnNFZgrp8HrnUD9GguC2CjI/mdT03If5mDv6GbVMdLjcHrkqIjg2Mpgk0VMnkE5t7pvUxV23fna5wOtipvZMTJBLNoe9klNHBcc9rZe/uyn9gCAP8w9srecEwW1xiVqlNimq3VTmmLq/zHmqip1Oe5VXItFhFxvdDUNou6dbB/mI7lJLrV3m48+LFqnh/XS63DZe6WsMGd1Vad+4/U+bxOtinuuZmCBnguB2kioiqOXjZr3Pll2bysprWmrNBlMUT+Vyc5yGMWZqZeB2VetjjTJG3sOll7ri3njpZ/U+beQjnWPCeSEvO/nT3DoPbx7To8cIA+9128tcsgBz6N3ddIptWxbXiD5+iS92jg7myOtxueQa/ybyiwSLzWGVSLR7vESNHem6CyaYTK5tFxZ1U2RYO52cJ3JV+Qaw6mKm0CsYSe5ql8yoCR8Wkp1V5A4Kj+mipBqHU++jYgqFnpHjvAjURE7p3badgkmit84jqtW8x3W6OM5HRhavpFebesZ3VTk3fFDolEjy8VErBWeZh9P7aFqHJUzh7M8kn7CSokPbnlMjNJzgKrV79Rq/gW16BNLmt3Ntl3hOiYKr0ukRiIgYfzkLW432XsmY4K9PUBkSI1pVVZ3YkJe34XhVldic5o+e5Kyso76tR/bsfxtJtqrMVc6Ie0N9pLqsX3LrJF5hlEk2l8dz2ZsVszI2vZbjCI7t+V6C2RQU1JIrPXBOOqkDfRiTnHvSt39Z7JYY48/rwZzfjVEGJYnZR7e+eaTGpYp65ca2SfVtxpmGtgoyMrEwZ+e0jAqPruXzvRMTTS1HBOfOLNbeHN/Cj0llhclv7DtRLjKVjHNKdPGf63UXzVyTdlif8Gaf2HCy/bF9wy+1+jF9+ozUq5L89Xx5XcfYuHg5VeTveWlfaR1vuLN3n1GGsIGBhw6cOHm82Ye3vH7qeH2DgloeKDt48oCkjEObG1r/OnepTKNWEom1OR9syywSiWdMaGQ/P1mTls4HPTyga1+VqUuA6q9cT4fY2Hg5c1Udfm1nZj4z392z5y0G/9tifDdnlB5wR/ZTGFvpuYNq/2iOiFRxZjXvMLX0YZJQlVZxmQ3bQOnOU0tIQfd3D2qvlE7kp7x/qMJGZAxtdbOBFy1Z07ccyhLkbdv1ezFSPyDcvLTG0ik6PIiTbGUHXt2dW0z60X36jjY01o9ql+88vf4l69zYkaafdSS8oX9S4shQvwAZI9FdVJK7qSB/W2ltrURModQxIsm6Mds2IDGsY0x4SEn1jVEmmVC5Msd9R1KITKHUEZWee+63jWvdVsE8tTnv78w44JJ4mYzzEsnr29a6cvuGeTXKfl0HTA6SJwX5qgqPO8SqeRv+mMfJ9Qq51i/+5Q6hJl//KO5EhibijjANJ1TO3bRjpVUyhHb+oGNIfGRYWN6R4xc9s33j3xwYJ1OozAqeI8lakbe19lK69cl3N9p7j5d9t37d9pDwfuFh3cxho81hIxNrU/IOzznafNbvXdWZ09YejzFqVIItt5Yb2LNvC+bYdKhQ07r3l9FmIyc5bSUL9qb8VXt5o8v6BbHSqppayewnV+rPu1yIlXtLXV1CVL263Niq8sSGnKy/SqzCORd8fZickWhJPV7rJGKi4D3zT6aWPowky+6CSqtEZCncVhWfGCCLNun5GmMrNSPJsi2nuFwkIsnpvYzddluq8r0ULpNrZESCJatWkPS8RiFnTNvSJGfE/CK6fxtx5u/91SrunNg9dbwKlaGJIUVDtXWitKSopT7CFP/uTSH7inKXZxVkNj40kjzVmXVSXxXTqxQcU8WZFIzE7KKCfC9JVL3puGWYwWg0mQLE3JQyT98wn1izNk5rVooemyQL8/UNcPhGcuQpL9l/Rc87nFM6ncwvmSmkO5Fgzf4qvbhKIiIuwmRUEDF97BvDY0+/V6fRqJkQoecZSceKT5SIREx0X+IFn+kaPVJWcXoxiMnNvcL9Azmprir7m5TDe88a9DK5QkNE5Ck/fmxTROhIQ+ToJL+2PmQpOrbFEjBcIoNcoTmv4ZiutVnBSMwqyDnokohI8J7TpSSJSHJlV9vFIAOvVGoYOZUBo9u3vTlAc/rmpSSTKYlURnMYR4x8xw+8Zfzpt6vVfowuml9MpgrSnnxHaWHqO/uLSiS61BFYU73XKnrthwqOHCo4+pMx8oFOid21hq6RQesym09+EZHktWVX2IiYX0S3ESbOWnp4iTfyvzEmKj86q0Q1JDFibFJ48o7ciiuYTYqit34x9rzKlpzbUrbUVbUcGhnaxi98jF9Ip0PbXs+6ICMZJ2t0FZedbkB29qpvfbEX3HAgIsbx8ovEiugRJWLEMSIiryQS8YwxYoxjRCRVlOVtqzm9SCdVVbmlkxfiho9XOrOKf5E081QfeXObdWjLqH7Bps4x7TuE+H6yOXVvo/ki1p9DDW74rNrwZpSU28NahAdE36BWeCsPLxXixvoGDvealSQeKi6tucL+cnbpp15y2qsUaj9t1KT40jcyKmx0sg4Fa/GqE2cWqARrrYtY/d0eGcc1fQGUzmrQM9fEho/07LUiy8EKW7S/Rmdu+VSfgP3H8zfmF6VZ3EJ9fjGSBI/VXXsgt/Lmtn49ItQk1S3LLbVJJjuRQXZBfp3aAanJ9vOK4sn+SrKOCR1vC1Q4a/J/PlZeq2pxd3ywmYid2ltJqN1xrLTsdB8Saosv4bTylKY9uqem3w29x/rK/H39gvmiEoFO3Tbj5dzF7oQ02nuJiPfzDekbHt43xNdfxkh05ZZWVVybOwN/74YNUwTd2TpALVYtyzhu89EYmHAoL3NjXs6uOlGm1vhd5QdJZEaF52BO+jsb1r6ZUyeQLDrY3//sruqoyXNJxLQ3RAWazi1actRkOyRi2m5hvlpGSn1YTzNH5M2ttgiO2ny3REzbIyLAxBERyeRyBZHX6ayTiKlMcZorqiPRmlvrlYjpFMKh3KMLDx9eeCRzbX7upsqmb6R6bB6JiAXpdfL6+GxihUKhZJbChclbnli/P81DvE9QZ9Ol7apkzar2SMS1DA2PkBGTm/q00HMk1dbUlElkLz+R7pYUfuE3aKS80hPbS6rc8qB+IUoSqnaXXPDYZf35IPMJUFx2Yws1R2fsO1Et8ZExnR4K9WEkFdZavEScQm4rzVl8+PDCw0dW5OevLqpxSfWVybUMj2rVREFej4OImDpcL2NEjOO4Jo/0rItx5ZKd6x/bsPOHnJISTtcxus3U/oM/6xYRyIiTy9WMSBBcJFUW5exxSUTkqsxdVyNKgtclEWMyjfz86s2zeCXiWoZFxioYETFe7sM1dRYFquWMpBMnsv8sPL6jtPb08qvTUlsiEeOUCvvx5UcOLzx8eHFO/obcEyekS6p5SbT8mZ6ZIxCnDr+3lZ+KSHI7a0QiThNnVnJNNGUTvZf3u7vf4E97dbwj3M/ord52JPW1tWteTissvjb59beev+dbxSX0VElFWRlrrKIgs5RLATHBYYmST1stc1VaSq7qqh5TBD84qH28x1HpEnzUWo4kq81+zkK7WLkqq7xHm4CgiG6fhjjrRJmeO3VhFKv+zCzt1T4oLOaGL8M9Iq9QceSqPbaixCOJFX9mVd6Q5NciqvvnYe46gWn4iq/X7NleXZzsiLxJbRrTb/Bgl6RWcRcM0S66SngsN7BVtLHlSzdFWd2CTC5X2LNf23Aou6lkcRyqsAkmXVBMjy9C3JLMvWbb5sWWBrsGi2rZc1q0osrhtJMyRE6SaC+1X2In8qZlZx0NTmxtjn9rSIyD5BqekadieU6Fh4g85TvKPN1DFbxYm1pqr/YWZwoBbXhyVR5PviC+BKvluETxnP/E/l09m/YWXeYgvrxo31cmwwtRmq5t2vWv2r2xMGtjlPlGrd+Y3oNHuDxeXq7lan7ZsO0Pmyc5O+dYYOsYQ+xrN0VUuxtuDslTeaBaaO+r7NX5xiSXoJCKP1qf3tSRnvtuu7Vs9cGyNYfVCaGRN0WFRzlsVRJxMpmCSBIFL5HkKVt5tEgXJMvOLqqQiATBTUQkV8sYnTPs9aRk5+YHxkWa4qYNjq7ziHK5tGP3mm+rG6sGZ16tU/RVR7fq+XZAnYVTB506OMGSt+RExOMtVF3a9f820WUXZRo57Utb/UGh59ya37OpkftmXsuxX/LC/xOjDYxIuClv6/K6yt2lrm4tlO3bDZrVykMK5el6PG+DOxrrvYK13CVVVOSvz83dWFJruWYr9397/MXrY8ZHapm9cG5WtZtIqMn6MuOEw7/Ny12ifWtyvzlQVHOVo1asqrG7ZT6heq1OtB0pPPTxweJzb8NIJbl7p6dm762xuzmlUc6cDmt2WVm+m4ik8oLk6SnZKbUugZcxjzUj/8DbO49mC0QknTi2e1pa9t4au5PJdHKpxuqWZIyE8vl79q0pr7NIMqNKLrnthVVlGXWXsXrtrjny9rZ9f5XWVnmZWiFjHntenUu8yDBFzMlM/i6/stzN1Col5/YIjd404jiPrdBFBo0uTM1Zakv+SE35w3KpF0GvJXvG9v1ryuusJFNJrqLSY19v373aWv92T3rBiWqJhLqSFJskuUr3VosSefYVnqiWLjzp82fvy82wur2Su9Z1+ZdgyXPg8P4NNokUAWMSQ/Sesp+27/w5v7zIKcoUCpXkLq6xWhkRkacm890d+9eUWqpFmVElJ4+9qKos47zHICTbmrTUP8usdRJvUPJOtyDjmz7ShvZIsGfkH/p405rnMio9RCoZT0SSILglIhLzc1Pf3blncblHolP5xWRq2YULxEfe2p6+psxSLXAaOe9x2OzUxN0/8fCRvd/nVxR7ZWG+/klGpdtuOVpWXSkRSc4dqVtnHC46YnV5OYWGF2vqqku9/OXUvHA062iKW2K8cWhsoIZcu9L3/FxYWeohtUqhFN1ltRWplTbPBRtsvPc6N+9Z8/T2fctOXPPwIiKWkJBw0T+y2+1qtZoAABrx66+/3nHHHVd9s02HD75/AgCaK+QXADRXmD8CwPUL80cAwPwRAAD5BQCA/AIA5BcAAPILAAD5BQCA/AIA5BcAAPILAAD5BQDILwAA5BcAAPILAAD5BQDILwAA5BcAAPILAJBfAADILwAA5BcAAPILAJBfAADILwAA5BcAIL8AAJBfAADILwAA5BcAIL8AAJBfAADILwBAfgEAIL8AAJBfAADILwBAfgEAIL8AAJBfAID8AgBAfgEAIL8AAJBfAID8AgBAfgEAIL8AAPkFAID8AgBAfgEAIL8AAPkFAID8AgBAfgEA8gsAAPkFAID8AgBAfgEA8gsAAPkFAID8AgDkFwAA8gsAAPkFAID8AgDkFwAA8gsAAPkFAMgvAADkFwAA8gsAAPkFAMgvAADkFwAA8gsAkF8AAMgvAADkFwAA8gsAkF8AAMgvAADkFwAgvwAAkF8AAMgvAADkFwAgvwAAkF8AAMgvAEB+AQAgvwAAkF8AAMgvAEB+AQAgvwAAkF8AgPwCAEB+AQAgvwAAkF8AgPwCAEB+AQAgvwDgX51f7dq1GzZsGKoJAK6tBrPoIvkVGhqKigOAa67BLGIJCQkXfafdbler1ahBAPgfazp8MH8EAMwfAQAwfwQAwPwRADB/BADA/BEAAPNHAMD8EfNHAMD8EQAA80cAAMwfAQDzR8wfAQDzRwAAzB8BAPNHzB8B4B84fwQAuG4hvwAA+QUAgPwCAEB+AQDyCwAA+QUAgPwCAOQXAADyCwAA+QUAgPwCAOQXAADyCwAA+QUAyC8AAOQXAADyCwAA+QUAyC8AAOQXAADyCwCQXwAAyC8AAOQXAADyCwCQXwAAyC8AAOQXACC/AACQXwAAyC8AAOQXACC/AACQXwAAyC8AQH4BACC/AACQXwAAyC8AQH4BACC/AACQXwCA/AIAQH4BACC/AACQXwCA/AIAQH4BACC/AAD5BQCA/AIAQH4BACC/AAD5BQCA/AIAQH4BAPILAAD5BQCA/AIAQH4BAPILAAD5BQCA/AIA5BcAAPILAAD5BQCA/AIA5BcAAPILAAD5BQDILwAA5BcAAPILAAD5BQDILwAA5BcAAPILAJBfAADILwAA5BcAAPILAJBfAADILwAA5BcAIL8AAJBfAADILwAA5BcAIL8AAJBfAADILwBAfgEAIL8AAJBfAADILwBAfgEAIL8AAJBfAID8AgBAfgEAIL8AAJBfAID8AgBAfgEAIL8AAPkFAID8AgBAfgEAIL8AAPkFAID8AgBAfgEA8gsAAPkFAID8AgBAfgEA8gsAAPkFAID8AgDkFwAA8gsAAPkFAID8AgDkFwAA8gsAAPkFAMgvAADkFwAA8gsAAPkFAMgvAADkFwAA8gsAkF8AAMgvAADkFwAgvwAAkF8AAMgvAADkFwAgvwAAkF8AAMgvAEB+AQAgvwAAkF8AAMgvAEB+AQBcX2SX+Hd2ux2VBQDNL7/UajVqCgAwf4R/snbt2g0bNuxy/wMA+QXXXmho6BX8B8CVYQkJCagFAMD4CwAA+QUAgPwCAOQXAADyCwAA+QUAyC8AAOQXAADyCwCgaf8Hxo/x2Xq9JeUAAAAASUVORK5CYII=;" vertex="1" parent="1">
          <mxGeometry x="-204" y="468" width="398" height="379.33" as="geometry" />
        </mxCell>
        <mxCell id="jjTKlG_NyitZqD7Paal4-1" value="&lt;h1&gt;Notes&lt;/h1&gt;&lt;div&gt;+ We might be able to just parse the document for keywords upon saving the document&lt;/div&gt;" style="text;html=1;strokeColor=#314354;fillColor=#647687;spacing=5;spacingTop=-20;whiteSpace=wrap;overflow=hidden;rounded=0;fontColor=#ffffff;" vertex="1" parent="1">
          <mxGeometry x="-521" y="460.17" width="235" height="395" as="geometry" />
        </mxCell>
      </root>
    </mxGraphModel>
  </diagram>
</mxfile>
